<svg width="194" height="44" viewBox="0 0 194 44" fill="none" xmlns="http://www.w3.org/2000/svg">
<path d="M37.0895 0.976369C37.363 0.944283 37.624 1.02207 37.8286 1.17466C37.9254 1.16505 38.0256 1.18422 38.1216 1.24151L45.8376 5.84507C46.233 6.08121 46.2659 6.78071 45.8982 7.13883L39.5785 13.2876L39.5806 13.305L47.2522 17.8824C47.6476 18.1185 47.6805 18.818 47.3128 19.1761L41.008 25.3094L48.6617 29.876C49.0571 30.1121 49.0899 30.8116 48.7222 31.1698L42.2827 37.4368C42.1721 37.5444 42.0484 37.5977 41.9279 37.6054C41.7846 37.7159 41.6113 37.791 41.4185 37.8137L6.04275 41.9709C5.09654 42.0821 4.23897 41.4056 4.12767 40.4595L0.201397 7.04875C0.0901953 6.10248 0.767518 5.24477 1.71379 5.13356L37.0895 0.976369Z" fill="#166AFE"/>
<path d="M29.4342 11.6797C28.6044 11.6822 27.8047 11.9817 27.1848 12.5224C26.9848 12.6969 26.8101 12.8946 26.6588 13.107C28.1396 14.5705 29.0034 16.6152 28.8919 18.8093L28.9035 18.8105L27.9834 27.6789L27.9786 27.6784C27.7583 29.3606 26.9687 30.9212 25.7306 32.1038C24.4442 33.3324 22.7577 34.0754 20.9671 34.2026C19.1764 34.3296 17.3947 33.8327 15.9347 32.7988C14.4748 31.765 13.4291 30.2601 12.9807 28.5475L17.0823 27.5199C17.2824 28.2844 17.7496 28.9566 18.4012 29.4181C19.0528 29.8795 19.8482 30.1014 20.6474 30.0448C21.4467 29.9881 22.1997 29.6562 22.774 29.1079C23.3482 28.5595 23.7077 27.8289 23.7892 27.0445L23.797 27.0453L23.961 25.4639C22.8833 25.8633 21.6964 26.0301 20.4713 25.903C16.2671 25.4665 13.2068 21.76 13.6358 17.6241C14.065 13.4883 17.8209 10.489 22.0253 10.9248C22.3361 10.9571 22.6409 11.0096 22.9383 11.0765C23.3266 10.4563 23.8065 9.88948 24.3691 9.39876C25.7577 8.18761 27.5486 7.51662 29.4072 7.51112L29.4342 11.6797ZM21.5988 15.0169C21.557 14.8968 21.3943 14.8799 21.3287 14.9889L20.5232 16.3279C20.4832 16.3941 20.3993 16.4189 20.3297 16.3854L18.907 15.6949C18.7919 15.6392 18.6642 15.7446 18.6966 15.8684L19.0886 17.37C19.1085 17.4464 19.0662 17.5254 18.9914 17.5504L17.5015 18.0468C17.3795 18.0876 17.3624 18.2536 17.4733 18.3188L18.8294 19.1114C18.8975 19.1512 18.9228 19.2372 18.8876 19.3079L18.1956 20.697C18.1386 20.8116 18.2419 20.9401 18.366 20.9091L19.9001 20.5263C19.9752 20.5077 20.0522 20.5491 20.0776 20.6223L20.5912 22.0982C20.633 22.2181 20.7957 22.2351 20.8612 22.1262L21.6668 20.7871C21.7068 20.7207 21.7905 20.6958 21.8602 20.7297L23.282 21.4191C23.3972 21.475 23.5255 21.3704 23.4933 21.2466L23.1003 19.7449C23.0804 19.6686 23.1237 19.5897 23.1985 19.5647L24.6875 19.0672C24.8098 19.0264 24.827 18.8603 24.7157 18.7952L23.3605 18.0037C23.2924 17.9639 23.2663 17.8777 23.3014 17.8071L23.9943 16.4181C24.0514 16.3035 23.9472 16.1739 23.823 16.2049L22.2898 16.5888C22.2147 16.6075 22.1379 16.5658 22.1123 16.4928L21.5988 15.0169Z" fill="white"/>
<path d="M155.589 33.3009C155.589 35.6078 154.778 37.8412 153.297 39.6102C151.817 41.3793 149.761 42.5712 147.49 42.9775C145.219 43.3838 142.878 42.9785 140.876 41.8325C138.874 40.6866 137.338 38.8731 136.539 36.7093L141.643 34.8225C142 35.7885 142.685 36.5982 143.579 37.1097C144.473 37.6213 145.518 37.8023 146.532 37.6209C147.546 37.4395 148.463 36.9074 149.124 36.1176C149.785 35.3279 150.147 34.3308 150.147 33.3009H155.589Z" fill="#1968FD"/>
<rect x="150.156" y="21.9189" width="5.43249" height="11.641" fill="#1968FD"/>
<path d="M155.589 22.4367C155.589 27.8657 151.188 32.2669 145.759 32.2669C140.33 32.2669 135.929 27.8657 135.929 22.4367C135.929 17.0076 140.33 12.6064 145.759 12.6064C151.188 12.6064 155.589 17.0076 155.589 22.4367ZM141.37 22.4367C141.37 24.8604 143.335 26.8252 145.759 26.8252C148.183 26.8252 150.147 24.8604 150.147 22.4367C150.147 20.0129 148.183 18.0481 145.759 18.0481C143.335 18.0481 141.37 20.0129 141.37 22.4367Z" fill="#1968FD"/>
<rect x="138.257" y="17.0039" width="12.9345" height="10.3476" fill="#1968FD"/>
<path d="M145.966 16.743C146.017 14.3558 146.934 12.0686 148.548 10.3085C150.161 8.54836 152.36 7.4357 154.734 7.17825L155.321 12.5882C154.261 12.7031 153.28 13.1999 152.559 13.9856C151.839 14.7714 151.429 15.7925 151.407 16.8582L145.966 16.743Z" fill="#1968FD"/>
<path d="M187.487 13.5303H187.507V20.6387H187.487C187.487 20.8657 187.495 21.0815 187.507 21.2861V21.3174H187.509C187.571 22.383 187.787 23.1412 188.161 23.5908C188.622 24.1305 189.46 24.4004 190.673 24.4004V24.4023L193.577 24.333C193.72 24.3296 193.838 24.4422 193.842 24.585L193.999 31.1396C194.002 31.2822 193.89 31.4007 193.747 31.4043L190.237 31.4883C190.218 31.4887 190.2 31.4868 190.182 31.4834C190.065 31.4859 189.968 31.4902 189.89 31.4902C188.349 31.4902 186.893 31.1365 185.522 30.4287C184.164 29.7209 183.072 28.7613 182.247 27.5498C181.204 26.0022 180.682 23.95 180.682 21.3945V6.65625H187.487V13.5303Z" fill="black"/>
<path d="M145.394 18.0314C145.487 17.8308 145.772 17.8308 145.864 18.0314L146.63 19.6922C146.686 19.8149 146.827 19.8734 146.954 19.8266L148.67 19.1934C148.877 19.1169 149.078 19.3185 149.002 19.5256L148.369 21.2412C148.322 21.3679 148.381 21.5092 148.503 21.5657L150.164 22.331C150.365 22.4234 150.365 22.7085 150.164 22.8009L148.503 23.5662C148.381 23.6227 148.322 23.764 148.369 23.8907L149.002 25.6062C149.078 25.8134 148.877 26.015 148.67 25.9385L146.954 25.3052C146.827 25.2585 146.686 25.317 146.63 25.4397L145.864 27.1005C145.772 27.3011 145.487 27.3011 145.394 27.1005L144.629 25.4397C144.573 25.317 144.431 25.2585 144.305 25.3052L142.589 25.9385C142.382 26.015 142.18 25.8134 142.257 25.6062L142.89 23.8907C142.937 23.764 142.878 23.6227 142.756 23.5662L141.095 22.8009C140.894 22.7085 140.894 22.4234 141.095 22.331L142.756 21.5657C142.878 21.5092 142.937 21.3679 142.89 21.2412L142.257 19.5256C142.18 19.3185 142.382 19.1169 142.589 19.1934L144.305 19.8266C144.431 19.8734 144.573 19.8149 144.629 19.6922L145.394 18.0314Z" fill="white"/>
<path d="M122.281 6.39746V31.6065H115.374V6.39746H122.281ZM132.863 13.1937L129.484 19.8977L134.507 31.6065H126.861L122.54 19.5837L125.679 13.1937H132.863Z" fill="black"/>
<path d="M89.8887 31.5371H82.9814V13.124H89.8887V31.5371Z" fill="black"/>
<path d="M86.3903 2L88.5222 4.65382L91.176 6.78577L88.5222 8.91772L86.3903 11.5715L84.2583 8.91772L81.6045 6.78577L84.2583 4.65382L86.3903 2Z" fill="#166AFE"/>
<path d="M174.958 28.6113C173.332 30.2375 171.187 31.242 168.897 31.4502C166.606 31.6583 164.316 31.0569 162.423 29.7505C160.53 28.4441 159.155 26.5155 158.538 24.3002C157.92 22.0849 158.099 19.7233 159.043 17.6261C159.986 15.5289 161.636 13.829 163.703 12.8222C165.771 11.8154 168.126 11.5654 170.359 12.1156C172.592 12.6659 174.561 13.9817 175.924 15.8339C177.288 17.6862 177.958 19.9578 177.819 22.2533L172.128 21.9094C172.186 20.9452 171.905 19.9912 171.332 19.2132C170.76 18.4353 169.933 17.8827 168.995 17.6515C168.057 17.4204 167.068 17.5254 166.199 17.9483C165.331 18.3712 164.638 19.0851 164.242 19.9659C163.846 20.8467 163.771 21.8386 164.03 22.7691C164.289 23.6995 164.867 24.5095 165.662 25.0582C166.457 25.6069 167.419 25.8595 168.381 25.772C169.343 25.6846 170.243 25.2627 170.926 24.5797L174.958 28.6113Z" fill="black"/>
<path d="M112.341 25.0522C111.607 27.1059 110.203 28.8526 108.355 30.0104C106.507 31.1683 104.323 31.6696 102.155 31.4337C99.9871 31.1977 97.9619 30.2381 96.4063 28.7098C94.8507 27.1816 93.8554 25.1737 93.581 23.0103C93.3066 20.8469 93.7692 18.6541 94.8941 16.7859C96.0189 14.9176 97.7405 13.4829 99.7809 12.7132C101.821 11.9435 104.061 11.8837 106.14 12.5436C108.219 13.2034 110.014 14.5443 111.237 16.35L106.578 19.505C106.065 18.7467 105.311 18.1835 104.438 17.9064C103.565 17.6292 102.624 17.6543 101.767 17.9776C100.91 18.3009 100.187 18.9035 99.7143 19.6881C99.2418 20.4728 99.0476 21.3937 99.1628 22.3024C99.278 23.211 99.6961 24.0543 100.349 24.6962C101.003 25.3381 101.853 25.7411 102.764 25.8402C103.674 25.9393 104.592 25.7287 105.368 25.2424C106.144 24.7562 106.734 24.0225 107.042 23.16L112.341 25.0522Z" fill="black"/>
<path d="M70.2021 13.1738H70.2217V20.4482H70.2021C70.2021 20.679 70.2102 20.8983 70.2217 21.1064V21.1426H70.2236C70.2877 22.233 70.509 23.0086 70.8916 23.4688C71.3634 24.0213 72.2203 24.2979 73.4619 24.2979V24.2988L76.4404 24.2285C76.5831 24.2253 76.7017 24.3378 76.7051 24.4805L76.8652 31.2002C76.8686 31.343 76.7561 31.4614 76.6133 31.4648L73.0098 31.5508C72.9915 31.5512 72.9734 31.5491 72.9561 31.5459C72.8385 31.5484 72.7402 31.5537 72.6611 31.5537C71.0843 31.5537 69.5944 31.1912 68.1914 30.4668C66.8009 29.7424 65.6831 28.7606 64.8389 27.5205C63.7711 25.9367 63.2373 23.8368 63.2373 21.2217V6.13867H70.2021V13.1738Z" fill="black"/>
<circle cx="75.5245" cy="13.7697" r="3.49232" fill="#156AFF"/>
<rect x="185.08" y="12.3477" width="7.50201" height="5.43249" fill="black"/>
<path d="M177.312 21.1426H177.578V22.1777H166.972V19.8496H177.312V21.1426Z" fill="black"/>
</svg>
