<svg width="715" height="162" viewBox="0 0 715 162" fill="none" xmlns="http://www.w3.org/2000/svg">
<path d="M115.835 4.96484C118.017 4.57494 120.132 5.41879 121.469 6.99524C122.377 6.26464 123.532 6.03228 124.649 6.61116L145.243 17.2781C147.615 18.5066 148.047 22.5465 146.042 24.7463L130.42 41.8884C129.902 42.4566 129.315 42.798 128.719 42.9384L129.085 44.9822C129.84 44.6445 130.692 44.6258 131.523 45.0562L152.117 55.7232C154.489 56.9517 154.92 60.9915 152.916 63.1914L137.293 80.3335C136.775 80.9018 136.188 81.243 135.593 81.3835L135.933 83.2878C136.689 82.9503 137.541 82.9325 138.371 83.3629L158.966 94.0298C161.337 95.2585 161.769 99.2983 159.764 101.498L144.142 118.64C143.214 119.658 142.066 119.951 141.043 119.656C140.194 121.161 138.705 122.291 136.87 122.619L30.8791 141.569C25.4424 142.541 20.2472 138.921 19.2752 133.485L1.75998 35.5187C0.788057 30.0821 4.40731 24.8868 9.84391 23.9148L115.835 4.96484Z" fill="#E464F5"/>
<path d="M97.8925 39.9721C95.052 39.9855 92.3125 41.0317 90.1872 42.9164C89.5026 43.5234 88.8972 44.2047 88.3786 44.9427C93.4445 50.0252 96.3936 57.1385 95.9996 64.7754L96.0356 64.7792L92.8342 95.637L92.8235 95.6359C92.06 101.49 89.3405 106.924 85.0944 111.046C80.6831 115.328 74.9056 117.922 68.7744 118.374C62.6436 118.826 56.5482 117.109 51.5564 113.521C46.5647 109.933 42.9936 104.702 41.4685 98.7466L55.5172 95.1497C56.1981 97.808 57.7928 100.143 60.0209 101.744C62.2494 103.346 64.9706 104.113 67.7075 103.911C70.4446 103.71 73.0238 102.552 74.9931 100.64C76.9625 98.7283 78.1966 96.1846 78.4798 93.4546L78.5051 93.4572L79.0748 87.9652C75.3848 89.359 71.3231 89.9394 67.1325 89.5047C52.7416 88.0113 42.2845 75.1349 43.7775 60.7439C45.2708 46.3532 58.1485 35.8973 72.5392 37.3899C73.6002 37.5 74.6403 37.6728 75.6553 37.9027C76.9878 35.7446 78.6376 33.775 80.5651 32.0657C85.326 27.8439 91.4621 25.4996 97.8252 25.4698L97.8925 39.9721ZM71.3941 52.6295C71.1186 51.8218 70.0227 51.7079 69.5874 52.442L67.5918 55.8068C67.3256 56.2558 66.7594 56.4244 66.291 56.1942L62.7804 54.4682C62.0147 54.092 61.159 54.7863 61.3696 55.6129L62.339 59.4041C62.468 59.9096 62.1858 60.4293 61.6919 60.5976L57.9892 61.8599C57.1816 62.1354 57.0679 63.2312 57.8017 63.6666L61.1666 65.6612C61.6156 65.9274 61.7851 66.4947 61.5548 66.9631L59.8279 70.4736C59.4513 71.2396 60.1467 72.0947 60.9737 71.8835L64.7638 70.915C65.2692 70.7859 65.7888 71.0675 65.9574 71.5611L67.2197 75.2639C67.495 76.072 68.591 76.1857 69.0264 75.4513L71.021 72.0865C71.2872 71.6376 71.8545 71.4691 72.3228 71.6992L75.8334 73.4252C76.5994 73.8019 77.4546 73.1075 77.2432 72.2804L76.2746 68.4903C76.1456 67.9847 76.4271 67.4641 76.9209 67.2957L80.6245 66.0344C81.4323 65.759 81.5458 64.6632 80.812 64.2277L77.4462 62.232C76.9978 61.9658 76.829 61.3993 77.0589 60.9312L78.7849 57.4197C79.1613 56.6537 78.4671 55.7985 77.6401 56.0098L73.85 56.9784C73.3444 57.1075 72.8238 56.8262 72.6555 56.3321L71.3941 52.6295Z" fill="white"/>
<path d="M689.31 47.5742H689.383V75.0527H689.31C689.31 75.9595 689.336 76.8197 689.383 77.6338V77.6748H689.385C689.626 81.7939 690.468 84.7227 691.913 86.4609C693.695 88.5479 696.931 89.5918 701.621 89.5918V89.5977L712.849 89.3291C713.401 89.316 713.859 89.7528 713.872 90.3047L714.479 115.642C714.492 116.194 714.055 116.652 713.503 116.665L699.936 116.99C699.892 116.991 699.848 116.988 699.806 116.983C699.319 116.994 698.916 117 698.596 117C692.64 117 687.012 115.633 681.713 112.896C676.46 110.16 672.239 106.45 669.05 101.766C665.017 95.7831 663 87.8527 663 77.9746V21H689.31V47.5742Z" fill="black"/>
<path d="M564.967 43.9307C560.87 44.375 557.075 46.2947 554.291 49.332C553.394 50.3105 552.621 51.3837 551.983 52.5264C560.053 59.1011 565.373 68.9221 565.947 80H566V125H565.985C565.76 133.561 562.65 141.807 557.141 148.39C551.417 155.228 543.471 159.836 534.692 161.406C525.914 162.977 516.863 161.41 509.124 156.98C501.385 152.551 495.449 145.54 492.357 137.176L512.088 129.882C513.468 133.616 516.118 136.746 519.573 138.724C523.028 140.701 527.069 141.4 530.987 140.699C534.906 139.998 538.454 137.941 541.009 134.889C543.564 131.836 544.965 127.981 544.965 124H545V115.991C539.885 118.555 534.111 120 528 120C507.013 120 490 102.987 490 82C490 61.0132 507.013 44 528 44C529.549 44 531.075 44.0954 532.575 44.2754C534.175 40.9619 536.26 37.8731 538.785 35.1182C545.022 28.3142 553.523 24.0128 562.699 23.0176L564.967 43.9307ZM528.408 64.9707C528.051 64.1957 526.949 64.1957 526.592 64.9707L523.634 71.3916C523.415 71.8655 522.869 72.0918 522.379 71.9111L515.747 69.4629C514.946 69.1676 514.168 69.9464 514.463 70.7471L516.911 77.3789C517.092 77.8685 516.866 78.4153 516.392 78.6338L509.971 81.5918C509.196 81.9492 509.196 83.0508 509.971 83.4082L516.392 86.3662C516.866 86.5847 517.092 87.1315 516.911 87.6211L514.463 94.2529C514.168 95.0536 514.946 95.8324 515.747 95.5371L522.379 93.0889C522.869 92.9082 523.415 93.1345 523.634 93.6084L526.592 100.029C526.949 100.804 528.051 100.804 528.408 100.029L531.366 93.6084C531.585 93.1345 532.131 92.9082 532.621 93.0889L539.253 95.5371C540.054 95.8324 540.832 95.0536 540.537 94.2529L538.089 87.6211C537.908 87.1315 538.134 86.5847 538.608 86.3662L545.029 83.4082C545.804 83.0508 545.804 81.9492 545.029 81.5918L538.608 78.6338C538.134 78.4153 537.908 77.8685 538.089 77.3789L540.537 70.7471C540.832 69.9464 540.054 69.1676 539.253 69.4629L532.621 71.9111C532.131 72.0918 531.585 71.8655 531.366 71.3916L528.408 64.9707Z" fill="#E464F5"/>
<path d="M437.245 20V117.449H410.545V20H437.245ZM478.152 46.2719L465.088 72.1869L484.506 117.449H454.95L438.245 70.9732L450.381 46.2719H478.152Z" fill="black"/>
<path d="M312.024 117.178H285.324V46H312.024V117.178Z" fill="black"/>
<path d="M298.5 3L306.741 13.2587L317 21.5L306.741 29.7413L298.5 40L290.259 29.7413L280 21.5L290.259 13.2587L298.5 3Z" fill="#E464F5"/>
<path d="M640.87 105.87C634.584 112.156 626.293 116.039 617.439 116.844C608.586 117.649 599.73 115.324 592.414 110.274C585.098 105.224 579.783 97.7683 577.396 89.2049C575.008 80.6415 575.699 71.5121 579.347 63.4052C582.996 55.2984 589.371 48.7272 597.364 44.8352C605.356 40.9432 614.461 39.9767 623.093 42.1039C631.724 44.231 639.337 49.3172 644.606 56.4774C649.875 63.6376 652.467 72.4186 651.931 81.2924L629.931 79.9628C630.156 76.2358 629.068 72.5478 626.855 69.5405C624.642 66.5332 621.444 64.397 617.819 63.5036C614.194 62.6102 610.37 63.0161 607.013 64.6508C603.656 66.2854 600.978 69.0453 599.446 72.4502C597.914 75.8551 597.624 79.6894 598.626 83.2861C599.629 86.8827 601.861 90.0139 604.934 92.1349C608.007 94.2559 611.726 95.2324 615.444 94.8945C619.163 94.5566 622.645 92.9256 625.285 90.2854L640.87 105.87Z" fill="black"/>
<path d="M398.816 92.1114C395.981 100.05 390.553 106.802 383.41 111.278C376.266 115.754 367.823 117.692 359.442 116.78C351.062 115.868 343.233 112.158 337.22 106.251C331.206 100.343 327.359 92.5811 326.298 84.2181C325.237 75.8552 327.025 67.3788 331.374 60.1568C335.722 52.9349 342.377 47.3888 350.264 44.4134C358.152 41.4381 366.812 41.2071 374.846 43.7578C382.881 46.3084 389.822 51.492 394.549 58.4718L376.541 70.6682C374.555 67.7366 371.64 65.5595 368.266 64.4883C364.891 63.417 361.254 63.514 357.941 64.7636C354.628 66.0133 351.833 68.3427 350.007 71.3759C348.181 74.4091 347.43 77.9692 347.875 81.4816C348.321 84.9941 349.937 88.254 352.462 90.7352C354.988 93.2165 358.276 94.7744 361.796 95.1575C365.316 95.5406 368.862 94.7266 371.862 92.8468C374.862 90.967 377.142 88.1312 378.333 84.7968L398.816 92.1114Z" fill="black"/>
<path d="M235.926 46.1953H236V74.3164H235.926C235.926 75.2404 235.952 76.1173 236 76.9473V77H236.003C236.25 81.2156 237.11 84.2132 238.589 85.9922C240.413 88.128 243.725 89.1953 248.524 89.1953V89.2021L260.038 88.9268C260.59 88.9138 261.048 89.3505 261.062 89.9023L261.684 115.878C261.697 116.43 261.259 116.889 260.707 116.902L246.776 117.235C246.731 117.236 246.686 117.232 246.642 117.228C246.155 117.238 245.75 117.245 245.429 117.245C239.333 117.245 233.574 115.845 228.15 113.045C222.775 110.245 218.455 106.448 215.191 101.654C211.064 95.5318 209 87.4159 209 77.3066V19H235.926V46.1953Z" fill="black"/>
<circle cx="256.5" cy="48.5" r="13.5" fill="#E464F5"/>
<rect x="680" y="43" width="29" height="21" fill="black"/>
<path d="M649.975 77H651V81H610V72H649.975V77Z" fill="black"/>
</svg>
