<svg width="299" height="259" viewBox="0 0 299 259" fill="none" xmlns="http://www.w3.org/2000/svg">
<path d="M213.09 8.53593C214.659 8.25554 216.193 8.614 217.429 9.42283C217.988 9.33141 218.576 9.41404 219.154 9.71352L265.401 33.6669C267.772 34.8957 268.204 38.9354 266.199 41.1352L231.768 78.9156L231.785 79.0088L277.765 102.825C280.137 104.054 280.569 108.094 278.564 110.293L244.221 147.977L290.085 171.733C292.457 172.961 292.888 177.001 290.884 179.201L255.803 217.694C255.203 218.353 254.509 218.707 253.818 218.795C253.025 219.488 252.041 219.981 250.929 220.18L47.6834 256.518C42.2468 257.49 37.0515 253.871 36.0795 248.434L1.75998 56.4778C0.787971 51.0412 4.40727 45.8459 9.84391 44.8739L213.09 8.53593Z" fill="#E464F5"/>
<path d="M176.097 72.3525C170.987 72.3762 166.059 74.2592 162.236 77.6496C161.005 78.7414 159.915 79.9659 158.982 81.2933C168.095 90.4362 173.4 103.232 172.691 116.971L172.755 116.977L166.996 172.486L166.978 172.484C165.605 183.016 160.713 192.79 153.074 200.204C145.139 207.907 134.747 212.574 123.718 213.388C112.69 214.202 101.725 211.111 92.745 204.657C83.765 198.202 77.3402 188.794 74.5967 178.08L99.8691 171.609C101.094 176.392 103.961 180.592 107.97 183.473C111.979 186.355 116.874 187.734 121.798 187.371C126.722 187.008 131.361 184.924 134.903 181.486C138.445 178.047 140.666 173.472 141.176 168.561L141.22 168.566L142.245 158.685C135.607 161.193 128.301 162.238 120.762 161.456C94.8739 158.77 76.0648 135.606 78.7505 109.718C81.4364 83.8305 104.6 65.0213 130.488 67.7071C132.398 67.9053 134.27 68.2157 136.098 68.6297C138.494 64.7481 141.461 61.2049 144.928 58.1305C153.493 50.5361 164.529 46.3184 175.976 46.2651L176.097 72.3525ZM127.868 93.4796C127.593 92.6715 126.497 92.5578 126.061 93.2921L121.212 101.472C120.946 101.921 120.379 102.09 119.91 101.859L111.377 97.6634C110.611 97.2868 109.755 97.9812 109.966 98.8081L112.321 108.022C112.45 108.528 112.168 109.048 111.674 109.217L102.673 112.284C101.865 112.559 101.751 113.655 102.486 114.09L110.666 118.94C111.115 119.206 111.283 119.773 111.053 120.242L106.857 128.776C106.481 129.542 107.176 130.397 108.003 130.186L117.216 127.831C117.721 127.702 118.242 127.983 118.41 128.478L121.477 137.479C121.753 138.287 122.849 138.401 123.284 137.666L128.133 129.486C128.4 129.037 128.967 128.869 129.435 129.099L137.97 133.295C138.736 133.671 139.591 132.977 139.379 132.15L137.025 122.936C136.896 122.431 137.177 121.91 137.671 121.742L146.672 118.675C147.48 118.399 147.594 117.303 146.86 116.868L138.68 112.018C138.231 111.752 138.062 111.185 138.293 110.717L142.489 102.182C142.865 101.416 142.171 100.561 141.344 100.772L132.13 103.127C131.624 103.256 131.104 102.975 130.935 102.481L127.868 93.4796Z" fill="white"/>
</svg>
